# xmcd
#
# Track frame offsets: 
#        150
#        10760
#        19445
#        34717
#        56200
#        70687
#        91965
#        111197
#        126180
#        147812
#        170025
#        184322
#        202640
#        235365
#        249112
#
# Disc length: 3523 seconds
#
# Revision: 0
# Processed by: cddbd v1.5.2PL0 Copyright (c) Steve Scherf et al.
# Submitted via: ExactAudioCopy v1.3
#
DISCID=ca0dc10f
DTITLE=憂歌団 - Live and Rare
DYEAR=1999
DGENRE=J - Blues
TTITLE0=Opening
TTITLE1=Moddy Jumps One
TTITLE2=If I Din't Love You
TTITLE3=Take A LIttele Walk With me
TTITLE4=Kind Heated Woman
TTITLE5=Rollin' and  Tumbklin'
TTITLE6=１０＄の恋
TTITLE7=おそうじオバチャン
TTITLE8=TOKYO-Boogie
TTITLE9=聖者の行進
TTITLE10=Sleepy Jhons Twist
TTITLE11=Summertime
TTITLE12=木村ジャンプス・アゲイン完全版
TTITLE13=お政治オバチャン
TTITLE14=コリナ・コリナ
EXTD=
EXTT0=
EXTT1=
EXTT2=
EXTT3=
EXTT4=
EXTT5=
EXTT6=
EXTT7=
EXTT8=
EXTT9=
EXTT10=
EXTT11=
EXTT12=
EXTT13=
EXTT14=
PLAYORDER=
